<?xml version="1.0" encoding="UTF-8"?>
<!DOCTYPE svg PUBLIC "-//W3C//DTD SVG 1.1//EN" "http://www.w3.org/Graphics/SVG/1.1/DTD/svg11.dtd">
<svg xmlns="http://www.w3.org/2000/svg" xmlns:xlink="http://www.w3.org/1999/xlink" width="4.611111111111111in" height="7.013888888888889in" viewBox="0 0 332 505.00000000000006" stroke-linecap="round" stroke-linejoin="round" >
<path d="M 0 163 L 14 440 L 89 440 L 96 164 L 0 163 z" fill="#3030ee" />
<path d="M 96 416 L 157 416 L 307 137 L 163 138 L 96 416 z" fill="#404040" />
<path d="M 123 20 L 101 297 L 110 288 L 158 0 L 123 20 z" fill="#606060" />
<path d="M 89 440 L 14 440 L 9 435 L 7 445 L 14 450 L 89 450 L 89 440 z" fill="#ff0000" />
<path d="M 332 495.00000000000006 L 257 495.00000000000006 L 252 490.00000000000006 L 250 500.00000000000006 L 257 505.00000000000006 L 332 505.00000000000006 L 332 495.00000000000006 z" fill="#ff0000" />
<path d="M 140.03860786619262 387.4443435399005 L 87.34958120884221 440.81911726214696 L 80.27866118353575 440.86483373314 L 85.9902569689726 449.3133645867133 L 94.46621770514173 447.84432081646037 L 147.15524436249217 394.4695470942139 L 140.03860786619262 387.4443435399005 z" fill="#ff0000" />
<g id="tool2"><path d="M 6 163 L 20 440 L 95 440 L 102 164 L 6 163 z" fill="#3030EE" transform="translate(220,200)" /></g>
        <g id="tool3"><path d="M 6 163 L 20 440 L 95 440 L 102 164 L 6 163 z" fill="#3030EE" transform="translate(190,50)" /></g>

</svg>
